<svg enable-background="new 0 0 46.167 62" height="367.12751" viewBox="0 0 46.167 62" width="272.384927" xmlns="http://www.w3.org/2000/svg" xmlns:xlink="http://www.w3.org/1999/xlink"><clipPath id="a"><path d="m1.156.98h43.473v59.555h-43.473z"/></clipPath><path d="m-268.083-366.583h612v792h-612z" fill="none"/><path clip-path="url(#a)" d="m37.811 48.928-.378.033c-2.37.203-4.645.838-6.757 1.883-1.388.688-2.664 1.535-3.798 2.52l-.149.131 3.504 3.729.139-.125c.835-.754 1.786-1.398 2.827-1.912 1.637-.811 3.4-1.266 5.242-1.355l.49-.023-.375-.314c-.055-.045-1.284-1.072-2.552-1.604.204-.336 1.609-2.637 1.609-2.637z" fill="#00549d"/><path clip-path="url(#a)" d="m35.616 52.159-.219-.08s1.331-2.178 1.647-2.697c-2.184.234-4.28.836-6.236 1.805-1.296.641-2.49 1.43-3.56 2.338.248.264 2.754 2.932 2.973 3.164.827-.725 1.755-1.348 2.77-1.85 1.535-.76 3.181-1.213 4.896-1.357-.497-.374-1.403-1.001-2.271-1.323" fill="#fff"/><path clip-path="url(#a)" d="m31.995 52.391-.46-.012c-.088.002-2.146-.014-4.517.988l-.29.127 1.355 1.436.074-.035c.082-.047 1.615-.65 3.183-1.955z" fill="#00549d"/><path clip-path="url(#a)" d="m28.165 54.5c-.187-.195-.529-.561-.848-.896 1.54-.641 2.978-.822 3.719-.873-.612.5-1.583 1.187-2.871 1.769" fill="#fff"/><path clip-path="url(#a)" d="m36.353 18.677h-27.59v18.255c0 2.1.471 9.229 6.532 12.807 4.908 2.896 6.165 4.07 6.239 4.15.418.338 1.127 1.225 1.127 1.225s1.061-1.152 1.282-1.313l.176-.15c-.019.02.908-.904 5.982-3.914 6.058-3.594 6.528-10.711 6.528-12.805v-18.255z" fill="#00549d"/><path clip-path="url(#a)" d="m36.074 19.233v17.699c0 2.021-.451 8.881-6.257 12.326-4.469 2.65-5.729 3.645-6.021 3.895l-.069.057s-.636.518-1.057 1.051c-.25-.428-.939-.979-.939-.979l-.005-.006c-.104-.1-1.157-1.07-6.149-4.016-5.807-3.428-6.258-10.303-6.258-12.328v-17.699z" fill="#fff"/><path clip-path="url(#a)" d="m22.696 52.28s.741-.871 6.447-4.256c5.443-3.229 5.568-9.959 5.568-11.092v-16.236h-24.03v16.236c0 1.133.119 7.877 5.568 11.092 5.65 3.336 6.447 4.256 6.447 4.256" fill="#00549d"/><path clip-path="url(#a)" d="m9.795 1.082v.121c0 .357-.345-.147-.345.823v2.286c0 1.071-.611 1.632-1.525 1.632-.961 0-1.542-.533-1.542-1.585v-2.67c0-.561-.325-.189-.325-.486v-.121h1.262v.121c0 .297-.326-.074-.326.486v2.729c0 .756.344 1.201 1.021 1.201 1.026 0 1.11-.985 1.11-1.349v-2.244c0-.971-.363-.466-.363-.823v-.121z"/><path clip-path="url(#a)" d="m10.086 2.599.825-.026v.337c.272-.283.552-.411.919-.411.646 0 .943.344.943.91v1.841c0 .478.315.147.315.451v.121h-1.205v-.121c0-.304.32.026.32-.451v-1.653c0-.424-.047-.774-.593-.774-.226 0-.54.168-.664.396v2.031c0 .478.319.147.319.451v.121h-1.181v-.121c0-.289.291.007.291-.451v-2.077c0-.459-.291-.169-.291-.438v-.136z"/><path clip-path="url(#a)" d="m14.364 5.25c0 .458.285.161.285.451v.121h-1.146v-.121c0-.29.29.007.29-.451v-2.077c0-.459-.29-.162-.29-.453v-.12l.86-.027v2.677zm.031-3.561c0 .222-.166.411-.362.411s-.363-.189-.363-.411c0-.224.166-.412.362-.412s.363.189.363.412"/><path clip-path="url(#a)" d="m17.105 3.767c.06-.148.196-.507.196-.661 0-.277-.333-.129-.333-.386v-.12h1.128v.12c0 .311-.208-.107-.48.614l-.973 2.536h-.326l-1.021-2.603c-.249-.642-.433-.229-.433-.548v-.119h1.37v.12c0 .257-.333.122-.333.352 0 .081.055.196.077.263l.636 1.746z"/><path clip-path="url(#a)" d="m18.856 4.104c-.036.734.309 1.496 1.034 1.496.372 0 .641-.242.871-.559l.202.175c-.303.465-.677.708-1.192.708-.885 0-1.525-.742-1.525-1.747 0-.95.569-1.678 1.424-1.678.813 0 1.265.728 1.24 1.604h-2.054zm1.424-.325c.03-.492-.143-.998-.647-.998-.498 0-.724.492-.76.998z"/><path clip-path="url(#a)" d="m22.191 3.591h.011c.09-.418.369-1.092.814-1.092.207 0 .386.134.386.383 0 .21-.167.345-.345.345-.154 0-.244-.094-.315-.094-.308 0-.557 1.038-.557 1.489v.628c0 .524.362.107.362.451v.122h-1.271v-.122c0-.337.344.061.344-.451v-2.077c0-.513-.344-.115-.344-.452v-.122l.914-.026v1.018z"/><path clip-path="url(#a)" d="m23.668 5.276c0-.216.167-.357.351-.357.148 0 .351.107.351.304 0 .054-.03.121-.03.175 0 .229.273.243.415.243.298 0 .671-.162.671-.547 0-.849-1.619-.472-1.619-1.611 0-.668.67-.983 1.174-.983.297 0 .873.113.873.565 0 .216-.166.33-.338.33-.149 0-.332-.094-.332-.297 0-.046.012-.094.012-.141 0-.156-.208-.176-.309-.176-.232 0-.54.169-.54.473 0 .796 1.649.444 1.649 1.604 0 .723-.665 1.066-1.223 1.066-.321 0-1.105-.143-1.105-.648"/><path clip-path="url(#a)" d="m27.389 5.25c0 .458.285.161.285.451v.121h-1.145v-.121c0-.29.291.007.291-.451v-2.077c0-.459-.291-.162-.291-.453v-.12l.859-.027v2.677zm.03-3.561c0 .222-.166.411-.362.411-.195 0-.361-.189-.361-.411 0-.224.166-.412.361-.412.196 0 .362.189.362.412"/><path clip-path="url(#a)" d="m28.007 2.809c0-.291.415-.027.415-.513v-.445c0-.175.06-.196.189-.202l.38-.026v.977h.7v.364h-.7v2.004c0 .315.06.593.392.593.137 0 .202-.02.32-.095l.041-.026.113.208c-.178.169-.486.277-.724.277-.587 0-.712-.459-.712-.795v-2.167h-.415v-.154z"/><path clip-path="url(#a)" d="m32.261 3.712c.048-.135.173-.493.173-.634 0-.29-.31-.102-.31-.357v-.121h1.068v.121c0 .282-.177-.067-.403.52l-1.104 2.885c-.226.587-.499 1.127-1.128 1.127-.195 0-.474-.129-.474-.404 0-.224.153-.351.337-.351.398 0 .232.337.398.337.296 0 .558-.742.659-1.012l-1.05-2.583c-.242-.601-.444-.223-.444-.52v-.12h1.353v.121c0 .264-.332.094-.332.297 0 .074.065.223.096.29l.688 1.679z"/><path clip-path="url(#a)" d="m37.82 4.184c0 .951-.61 1.74-1.471 1.74-.843 0-1.507-.708-1.507-1.686 0-.951.611-1.74 1.471-1.74.843 0 1.507.708 1.507 1.686m-2.319-.007c0 .634.143 1.497.843 1.497.67 0 .818-.836.818-1.429 0-.634-.131-1.498-.843-1.498-.658 0-.818.837-.818 1.43"/><path clip-path="url(#a)" d="m38.208 2.963v-.121c0-.113.033-.128.111-.154.238-.081.207-.143.227-.418.035-.561.146-1.289.789-1.289.166 0 .373.115.373.345 0 .188-.129.297-.273.297-.113 0-.166-.062-.207-.116-.035-.06-.059-.113-.105-.113-.061 0-.078.095-.078.148.023.586.059.802.047 1.059h.48v.363h-.48v2.252c0 .54.369.149.369.486v.121h-1.252v-.122c0-.303.314.027.314-.451v-2.287z"/><path clip-path="url(#a)" d="m1.156 14.992c0-.476.522.119.522-.777v-5.642c0-.896-.513-.303-.513-.777v-.194h2.013v.194c0 .475-.522-.118-.522.777v6.128h1.538c1.576 0 .95-1.425 1.528-1.425h.219v1.909h-4.785z"/><path clip-path="url(#a)" d="m7.119 12.435c-.057 1.177.493 2.396 1.651 2.396.599 0 1.026-.388 1.396-.896l.322.28c-.483.744-1.082 1.133-1.908 1.133-1.414 0-2.44-1.187-2.44-2.795 0-1.521.912-2.686 2.28-2.686 1.3 0 2.021 1.165 1.983 2.567h-3.284zm2.278-.518c.048-.788-.228-1.596-1.035-1.596-.797 0-1.158.787-1.215 1.596z"/><path clip-path="url(#a)" d="m10.537 10.363c0-.463.665-.043.665-.819v-.712c0-.281.095-.313.304-.324l.606-.043v1.564h1.121v.582h-1.121v3.205c0 .507.096.948.627.948.219 0 .323-.031.513-.15l.066-.043.181.334c-.284.27-.778.442-1.158.442-.94 0-1.139-.733-1.139-1.272v-3.464h-.665z"/><path clip-path="url(#a)" d="m15.189 14.269c0 .756.483.248.483.724v.193h-1.898v-.193c0-.485.503.043.503-.724v-5.75c0-.766-.503-.236-.503-.723v-.194l1.415-.043v2.869c.465-.345.901-.561 1.462-.561 1.434 0 1.576 1.133 1.576 1.457v2.944c0 .756.493.238.493.724v.193h-1.88v-.193c0-.476.476.021.476-.724v-2.687c0-.345.009-1.197-.95-1.197-.398 0-.93.249-1.177.605z"/><path clip-path="url(#a)" d="m20.544 10.299c.399-.291.863-.432 1.338-.432 1.339 0 2.165 1.208 2.165 2.708s-.826 2.772-2.231 2.772c-.483 0-1.043-.227-1.433-.55l-.561.55h-.19v-6.828c0-.766-.503-.236-.503-.723v-.194l1.415-.043zm0 4.132c.266.271.655.433 1.006.433 1.149 0 1.444-1.253 1.444-2.32 0-1.079-.342-2.19-1.444-2.19-.351 0-.74.161-1.006.432z"/><path clip-path="url(#a)" d="m25.908 11.614h.019c.143-.669.589-1.746 1.301-1.746.333 0 .617.216.617.613 0 .335-.266.55-.551.55-.246 0-.39-.15-.503-.15-.493 0-.893 1.662-.893 2.385v1.003c0 .842.58.173.58.724v.194h-2.033v-.194c0-.539.551.097.551-.724v-3.323c0-.818-.551-.183-.551-.722v-.195l1.463-.043z"/><path clip-path="url(#a)" d="m29.479 14.269c0 .734.455.26.455.724v.193h-1.832v-.193c0-.464.465.011.465-.724v-3.322c0-.733-.465-.26-.465-.723v-.194l1.377-.043zm.046-5.696c0 .355-.266.657-.579.657s-.58-.302-.58-.657c0-.356.268-.658.58-.658.314 0 .579.302.579.658"/><path clip-path="url(#a)" d="m33.893 8.519c0-.755-.494-.236-.494-.723v-.194l1.405-.043v6.71c0 .724.447.271.447.724v.193h-1.329v-.431c-.38.399-.883.593-1.368.593-1.338 0-2.164-1.208-2.164-2.708s.826-2.772 2.231-2.772c.456 0 .873.195 1.271.431v-1.78zm0 2.265c-.266-.271-.655-.433-1.007-.433-1.148 0-1.441 1.253-1.441 2.32 0 1.079.341 2.19 1.441 2.19.352 0 .741-.161 1.007-.432z"/><path clip-path="url(#a)" d="m36.617 14.399c.37-.087.75-.162 1.13-.162 1.861 0 2.222 1.024 2.222 1.521 0 1.295-1.357 1.715-2.288 1.715-.551 0-2.014-.193-2.014-1.089 0-.355.247-.583.56-.583.228 0 .514.174.514.476 0 .129-.058.248-.058.345 0 .388.836.399 1.063.399.494 0 1.406-.237 1.406-.949 0-.842-1.168-.95-1.7-.95-.798 0-1.501.227-1.604.227-.076 0-.076-.075-.057-.118l.825-1.932c-.483-.323-.797-.853-.797-1.488 0-1.22.978-1.942 1.993-1.942.39 0 .722.13 1.064.324.066-.421.332-.755.73-.755.275 0 .541.183.541.527 0 .259-.18.443-.418.443-.313 0-.332-.249-.416-.249-.078 0-.115.098-.115.173 0 .238.523.582.523 1.348 0 1.198-.912 1.953-1.927 1.953-.267 0-.542-.021-.789-.14zm1.168-1.112c.731 0 .979-.906.979-1.586 0-.691-.256-1.489-.968-1.489-.771 0-1.017.853-1.017 1.575s.276 1.5 1.006 1.5"/><path clip-path="url(#a)" d="m41.26 12.435c-.057 1.177.494 2.396 1.652 2.396.598 0 1.025-.388 1.395-.896l.324.28c-.484.744-1.084 1.133-1.91 1.133-1.414 0-2.439-1.187-2.439-2.795 0-1.521.912-2.686 2.279-2.686 1.301 0 2.023 1.165 1.984 2.567h-3.285zm2.28-.518c.047-.788-.229-1.596-1.035-1.596-.799 0-1.16.787-1.215 1.596z"/><path clip-path="url(#a)" d="m30.935 37.065c-.725-.367-.749-.246-1.839-.42-.625-.098-.938-.527-1.148-.916l5.152-1.09-5.43-1.135c.687-.162 1.441-.389 1.884-.773.457-.396.759-1.125 1.626-1.195.827-.064 1.238.736 1.238.736s.237-.625-.264-1.209c-.482-.563-1.195-.871-1.996-.607-.77.256-.704.357-1.597 1.006-.512.371-1.036.289-1.461.164l2.873-4.415-4.641 3.036c.37-.6.743-1.294.783-1.878.043-.604-.258-1.333.307-1.994.538-.633 1.396-.356 1.396-.356s-.274-.61-1.041-.668c-.738-.057-1.461.229-1.84.982-.366.725-.247.748-.42 1.84-.097.604-.5.916-.879 1.126l-1.028-5.245-1.221 5.595c-.164-.7-.393-1.481-.786-1.934-.398-.457-1.126-.76-1.194-1.627-.066-.828.734-1.238.734-1.238s-.624-.238-1.208.263c-.563.483-.871 1.196-.607 1.997.254.771.357.703 1.004 1.597.372.513.29 1.036.164 1.461l-4.414-2.873 3.037 4.64c-.601-.371-1.294-.742-1.877-.783-.604-.043-1.334.258-1.996-.307-.632-.538-.355-1.395-.355-1.395s-.609.273-.668 1.042c-.058.738.229 1.461.982 1.84.726.365.749.246 1.838.42.626.1.939.527 1.149.918l-5.152 1.09 5.43 1.133c-.687.162-1.441.389-1.883.771-.458.398-.76 1.127-1.628 1.195-.827.066-1.237-.732-1.237-.732s-.238.623.264 1.207c.48.563 1.195.869 1.996.607.771-.254.704-.355 1.597-1.004.513-.373 1.036-.291 1.46-.164l-2.872 4.412 4.641-3.037c-.37.602-.743 1.295-.783 1.879-.043.605.258 1.334-.306 1.996-.539.631-1.396.355-1.396.355s.273.609 1.04.668c.738.057 1.461-.23 1.841-.982.365-.725.246-.75.419-1.84.101-.625.528-.938.917-1.148l1.09 5.152 1.134-5.43c.163.686.391 1.441.773 1.885.397.457 1.126.758 1.195 1.625.064.828-.735 1.24-.735 1.24s.624.236 1.208-.266c.563-.48.87-1.195.607-1.996-.254-.77-.356-.703-1.004-1.596-.371-.514-.29-1.037-.164-1.461l4.414 2.873-3.037-4.641c.6.369 1.295.742 1.878.783.604.043 1.333-.258 1.995.307.632.539.355 1.395.355 1.395s.61-.273.668-1.041c.058-.738-.229-1.461-.982-1.84" fill="#ffd400"/><path clip-path="url(#a)" d="m7.735 49.215s1.405 2.299 1.61 2.635c-1.27.533-2.498 1.561-2.552 1.605l-.373.315.487.023c1.842.09 3.606.545 5.242 1.354 1.041.516 1.992 1.158 2.827 1.912l.139.127 3.505-3.729-.15-.131c-1.132-.984-2.41-1.832-3.796-2.52-2.114-1.045-4.389-1.68-6.759-1.883l-.378-.033z" fill="#00549d"/><path clip-path="url(#a)" d="m9.731 52.122.218-.08s-1.33-2.178-1.646-2.697c2.183.234 4.28.836 6.236 1.805 1.296.641 2.489 1.43 3.56 2.338-.248.264-2.754 2.932-2.974 3.164-.826-.725-1.754-1.348-2.77-1.85-1.536-.76-3.181-1.213-4.895-1.357.499-.374 1.403-1.003 2.271-1.323" fill="#fff"/><path clip-path="url(#a)" d="m22.697 55.641c-3.347 0-6.366-1.068-8.812-3.293l-.31-.006-.224.012-2.566 3.775.133.111c3.284 2.77 7.468 4.295 11.778 4.295 4.325 0 8.479-1.51 11.695-4.252l.13-.111-2.527-3.783-.239-.006h-.352c-2.375 2.198-5.342 3.258-8.706 3.258" fill="#00549d"/><path clip-path="url(#a)" d="m22.713 56.012c3.382 0 6.562-1.199 8.989-3.367.208.307 2.152 3.186 2.324 3.439-3.128 2.615-7.137 4.055-11.313 4.055-4.163 0-8.202-1.455-11.397-4.098.174-.256 2.117-3.135 2.324-3.439 2.495 2.195 5.705 3.41 9.073 3.41" fill="#fff"/><path clip-path="url(#a)" d="m14.593 54.428 1.131.696-.166.269-.827-.51-.382.621.789.489-.165.267-.79-.486-.597.969-.305-.188z"/><path clip-path="url(#a)" d="m15.982 55.469h.358v2.499h-.358z" transform="matrix(-.9102 -.4142 .4142 -.9102 7.3772 115.0362)"/><path clip-path="url(#a)" d="m18.548 56.276.362.104.34 2.691-.375-.105-.075-.676-1.178-.33-.416.537-.362-.102zm.078.373-.815 1.059.959.268z"/><path clip-path="url(#a)" d="m21.114 57.106-.774-.072.03-.315 1.903.178-.029.314-.774-.074-.203 2.176-.356-.033z"/><path clip-path="url(#a)" d="m24.437 56.786.353-.055.337 2.156 1.033-.162.048.313-1.386.216z"/><path clip-path="url(#a)" d="m28.879 57.151c.229.664.016 1.137-.566 1.336-.583.199-1.04-.041-1.269-.703l-.476-1.387.339-.115.46 1.342c.156.453.406.715.842.564.438-.148.474-.51.316-.963l-.461-1.342.339-.117z"/><path clip-path="url(#a)" d="m30.448 56.063-1.329-.611.37-.217 1.06.492.087-1.164.352-.205-.123 1.453 1.457.66-.389.229-1.172-.541-.078 1.273-.371.219z"/><path clip-path="url(#a)" d="m14.008 52.903c1.567 1.305 3.101 1.908 3.183 1.957l.074.033 1.355-1.436-.291-.127c-2.37-1.002-4.429-.986-4.516-.988l-.46.012z" fill="#00549d"/><path clip-path="url(#a)" d="m17.184 54.463c.185-.197.529-.561.847-.896-1.57-.637-2.977-.822-3.718-.873.612.5 1.583 1.187 2.871 1.769" fill="#fff"/></svg>